<svg xmlns="http://www.w3.org/2000/svg" viewBox="0 0 24 24" fill="none" width="48" height="48">
  <!-- Niebieskie zaokrąglone tło -->
  <rect width="24" height="24" rx="5" fill="#003366" x="0" y="0"/>

  <!-- Czapka akademicka - wycentrowana -->
  <g transform="translate(2, 3) scale(0.85)">
    <!-- Daszek (mortarboard) -->
    <path d="M21.42 10.922a1 1 0 0 0-.019-1.838L12.83 5.18a2 2 0 0 0-1.66 0L2.6 9.08a1 1 0 0 0 0 1.832l8.57 3.908a2 2 0 0 0 1.66 0z" stroke="#F4C430" stroke-width="1.5" stroke-linecap="round" stroke-linejoin="round" fill="none"/>

    <!-- Taśma główna (pionowa) -->
    <path d="M22 10v6" stroke="#F4C430" stroke-width="1.5" stroke-linecap="round" stroke-linejoin="round"/>

    <!-- Taśma wisząca z pom-pomem -->
    <path d="M6 12.5V16a6 3 0 0 0 12 0v-3.5" stroke="#F4C430" stroke-width="1.5" stroke-linecap="round" stroke-linejoin="round" fill="none"/>
  </g>
</svg>


